<svg width="21" height="20" viewBox="0 0 21 20" fill="red" xmlns="http://www.w3.org/2000/svg">
<path d="M6.33329 1.66663H5.49996C2.99996 1.66663 2.16663 3.15829 2.16663 4.99996V5.83329V17.5C2.16663 18.1916 2.94996 18.5833 3.49996 18.1666L4.92496 17.1C5.25829 16.85 5.72496 16.8833 6.02496 17.1833L7.40829 18.575C7.73329 18.9 8.26663 18.9 8.59163 18.575L9.99163 17.175C10.2833 16.8833 10.75 16.85 11.075 17.1L12.5 18.1666C13.05 18.575 13.8333 18.1833 13.8333 17.5V3.33329C13.8333 2.41663 14.5833 1.66663 15.5 1.66663H6.33329ZM9.87496 11.4583H6.12496C5.78329 11.4583 5.49996 11.175 5.49996 10.8333C5.49996 10.4916 5.78329 10.2083 6.12496 10.2083H9.87496C10.2166 10.2083 10.5 10.4916 10.5 10.8333C10.5 11.175 10.2166 11.4583 9.87496 11.4583ZM10.5 8.12496H5.49996C5.15829 8.12496 4.87496 7.84163 4.87496 7.49996C4.87496 7.15829 5.15829 6.87496 5.49996 6.87496H10.5C10.8416 6.87496 11.125 7.15829 11.125 7.49996C11.125 7.84163 10.8416 8.12496 10.5 8.12496Z" fill="#000"/>
<path d="M15.5084 1.66663V2.91663C16.0584 2.91663 16.5834 3.14163 16.9667 3.51663C17.3667 3.92496 17.5834 4.44996 17.5834 4.99996V7.01663C17.5834 7.63329 17.3084 7.91663 16.6834 7.91663H15.0834V3.34163C15.0834 3.10829 15.275 2.91663 15.5084 2.91663V1.66663ZM15.5084 1.66663C14.5834 1.66663 13.8334 2.41663 13.8334 3.34163V9.16663H16.6834C18 9.16663 18.8334 8.33329 18.8334 7.01663V4.99996C18.8334 4.08329 18.4584 3.24996 17.8584 2.64163C17.25 2.04163 16.425 1.67496 15.5084 1.66663C15.5167 1.66663 15.5084 1.66663 15.5084 1.66663Z" fill="#000"/>
</svg>
