<svg width="375" height="182" viewBox="0 0 375 182" fill="none" xmlns="http://www.w3.org/2000/svg">
<path d="M0 0H375V162.373L259.337 174.48C211.576 179.48 163.424 179.48 115.663 174.48L0 162.373V0Z" fill="url(#paint0_linear_4802_18247)"/>
<path d="M157.098 94.288C155.962 94.288 154.906 94.08 153.93 93.664C152.97 93.248 152.138 92.672 151.434 91.936C150.746 91.184 150.242 90.312 149.922 89.32L152.634 88.144C153.066 89.168 153.69 89.976 154.506 90.568C155.322 91.144 156.242 91.432 157.266 91.432C157.842 91.432 158.338 91.344 158.754 91.168C159.186 90.976 159.514 90.72 159.738 90.4C159.978 90.08 160.098 89.696 160.098 89.248C160.098 88.72 159.938 88.288 159.618 87.952C159.314 87.6 158.85 87.328 158.226 87.136L154.794 86.032C153.402 85.6 152.354 84.952 151.65 84.088C150.946 83.224 150.594 82.208 150.594 81.04C150.594 80.016 150.842 79.112 151.338 78.328C151.85 77.544 152.554 76.936 153.45 76.504C154.362 76.056 155.402 75.832 156.57 75.832C157.642 75.832 158.626 76.024 159.522 76.408C160.418 76.776 161.186 77.296 161.826 77.968C162.482 78.624 162.97 79.4 163.29 80.296L160.602 81.496C160.25 80.6 159.722 79.912 159.018 79.432C158.314 78.936 157.498 78.688 156.57 78.688C156.026 78.688 155.546 78.784 155.13 78.976C154.714 79.152 154.386 79.408 154.146 79.744C153.922 80.064 153.81 80.448 153.81 80.896C153.81 81.392 153.97 81.832 154.29 82.216C154.61 82.584 155.098 82.872 155.754 83.08L159.042 84.112C160.466 84.576 161.53 85.216 162.234 86.032C162.954 86.848 163.314 87.856 163.314 89.056C163.314 90.08 163.05 90.984 162.522 91.768C161.994 92.552 161.266 93.168 160.338 93.616C159.41 94.064 158.33 94.288 157.098 94.288ZM165.989 94V80.944H169.133V94H165.989ZM165.989 79.48V76.12H169.133V79.48H165.989ZM178.372 99.28C177.396 99.28 176.492 99.12 175.66 98.8C174.828 98.48 174.108 98.032 173.5 97.456C172.908 96.896 172.476 96.232 172.204 95.464L175.132 94.36C175.324 94.968 175.7 95.456 176.26 95.824C176.836 96.208 177.54 96.4 178.372 96.4C179.012 96.4 179.572 96.28 180.052 96.04C180.548 95.8 180.932 95.448 181.204 94.984C181.476 94.536 181.612 93.992 181.612 93.352V90.376L182.212 91.096C181.764 91.88 181.164 92.472 180.412 92.872C179.66 93.272 178.804 93.472 177.844 93.472C176.628 93.472 175.54 93.192 174.58 92.632C173.62 92.072 172.868 91.304 172.324 90.328C171.78 89.352 171.508 88.256 171.508 87.04C171.508 85.808 171.78 84.712 172.324 83.752C172.868 82.792 173.612 82.04 174.556 81.496C175.5 80.936 176.572 80.656 177.772 80.656C178.748 80.656 179.604 80.864 180.34 81.28C181.092 81.68 181.716 82.264 182.212 83.032L181.78 83.824V80.944H184.756V93.352C184.756 94.488 184.476 95.504 183.916 96.4C183.372 97.296 182.62 98 181.66 98.512C180.716 99.024 179.62 99.28 178.372 99.28ZM178.228 90.568C178.9 90.568 179.484 90.424 179.98 90.136C180.492 89.832 180.892 89.416 181.18 88.888C181.468 88.36 181.612 87.752 181.612 87.064C181.612 86.392 181.46 85.792 181.156 85.264C180.868 84.72 180.468 84.296 179.956 83.992C179.46 83.688 178.884 83.536 178.228 83.536C177.572 83.536 176.98 83.688 176.452 83.992C175.924 84.296 175.508 84.72 175.204 85.264C174.916 85.792 174.772 86.392 174.772 87.064C174.772 87.736 174.916 88.336 175.204 88.864C175.508 89.392 175.916 89.808 176.428 90.112C176.956 90.416 177.556 90.568 178.228 90.568ZM187.692 94V80.944H190.644V83.512L190.404 83.056C190.708 82.272 191.204 81.68 191.892 81.28C192.596 80.864 193.412 80.656 194.34 80.656C195.3 80.656 196.148 80.864 196.884 81.28C197.636 81.696 198.22 82.28 198.636 83.032C199.052 83.768 199.26 84.624 199.26 85.6V94H196.116V86.344C196.116 85.768 196.004 85.272 195.78 84.856C195.556 84.44 195.244 84.12 194.844 83.896C194.46 83.656 194.004 83.536 193.476 83.536C192.964 83.536 192.508 83.656 192.108 83.896C191.708 84.12 191.396 84.44 191.172 84.856C190.948 85.272 190.836 85.768 190.836 86.344V94H187.692ZM206.184 94V80.944H209.328V94H206.184ZM206.184 79.48V76.12H209.328V79.48H206.184ZM212.231 94V80.944H215.183V83.512L214.943 83.056C215.247 82.272 215.743 81.68 216.431 81.28C217.135 80.864 217.951 80.656 218.879 80.656C219.839 80.656 220.687 80.864 221.423 81.28C222.175 81.696 222.759 82.28 223.175 83.032C223.591 83.768 223.799 84.624 223.799 85.6V94H220.655V86.344C220.655 85.768 220.543 85.272 220.319 84.856C220.095 84.44 219.783 84.12 219.383 83.896C218.999 83.656 218.543 83.536 218.015 83.536C217.503 83.536 217.047 83.656 216.647 83.896C216.247 84.12 215.935 84.44 215.711 84.856C215.487 85.272 215.375 85.768 215.375 86.344V94H212.231Z" fill="white"/>
<path d="M118.232 120V109.57H119.352V114.26H124.952V109.57H126.072V120H124.952V115.31H119.352V120H118.232ZM128.387 120V112.496H129.437V120H128.387ZM128.387 111.11V109.57H129.437V111.11H128.387ZM131.586 120V112.496H132.636V120H131.586ZM131.586 111.11V109.57H132.636V111.11H131.586ZM139.236 120L136.24 109.57H137.374L139.964 118.908H139.726L142.386 109.57H143.576L146.222 118.908H145.97L148.574 109.57H149.708L146.712 120H145.522L142.848 110.62H143.1L140.426 120H139.236ZM153.801 120.168C153.101 120.168 152.466 120 151.897 119.664C151.337 119.319 150.893 118.847 150.567 118.25C150.24 117.653 150.077 116.976 150.077 116.22C150.077 115.464 150.235 114.797 150.553 114.218C150.87 113.63 151.299 113.168 151.841 112.832C152.391 112.496 153.007 112.328 153.689 112.328C154.23 112.328 154.711 112.431 155.131 112.636C155.56 112.832 155.924 113.103 156.223 113.448C156.521 113.784 156.75 114.167 156.909 114.596C157.067 115.016 157.147 115.45 157.147 115.898C157.147 115.991 157.142 116.099 157.133 116.22C157.123 116.332 157.109 116.449 157.091 116.57H150.749V115.59H156.489L155.985 116.01C156.069 115.497 156.008 115.039 155.803 114.638C155.607 114.227 155.322 113.905 154.949 113.672C154.575 113.429 154.155 113.308 153.689 113.308C153.222 113.308 152.788 113.429 152.387 113.672C151.995 113.915 151.687 114.255 151.463 114.694C151.239 115.123 151.15 115.637 151.197 116.234C151.15 116.831 151.243 117.354 151.477 117.802C151.719 118.241 152.046 118.581 152.457 118.824C152.877 119.067 153.325 119.188 153.801 119.188C154.351 119.188 154.813 119.057 155.187 118.796C155.56 118.535 155.863 118.208 156.097 117.816L156.993 118.292C156.843 118.628 156.615 118.941 156.307 119.23C155.999 119.51 155.63 119.739 155.201 119.916C154.781 120.084 154.314 120.168 153.801 120.168ZM158.998 120V109.402H160.048V120H158.998ZM165.627 120.168C164.89 120.168 164.241 119.995 163.681 119.65C163.121 119.305 162.682 118.838 162.365 118.25C162.048 117.653 161.889 116.981 161.889 116.234C161.889 115.487 162.048 114.82 162.365 114.232C162.682 113.644 163.121 113.182 163.681 112.846C164.241 112.501 164.89 112.328 165.627 112.328C166.094 112.328 166.532 112.412 166.943 112.58C167.354 112.748 167.718 112.977 168.035 113.266C168.352 113.546 168.59 113.873 168.749 114.246L167.797 114.736C167.61 114.335 167.326 114.008 166.943 113.756C166.56 113.504 166.122 113.378 165.627 113.378C165.132 113.378 164.684 113.504 164.283 113.756C163.891 113.999 163.578 114.339 163.345 114.778C163.121 115.207 163.009 115.697 163.009 116.248C163.009 116.789 163.121 117.279 163.345 117.718C163.578 118.147 163.891 118.488 164.283 118.74C164.684 118.992 165.132 119.118 165.627 119.118C166.122 119.118 166.556 118.992 166.929 118.74C167.312 118.488 167.601 118.152 167.797 117.732L168.749 118.25C168.59 118.614 168.352 118.941 168.035 119.23C167.718 119.519 167.354 119.748 166.943 119.916C166.532 120.084 166.094 120.168 165.627 120.168ZM174.106 120.168C173.396 120.168 172.752 120 172.174 119.664C171.595 119.319 171.133 118.852 170.788 118.264C170.452 117.667 170.284 116.99 170.284 116.234C170.284 115.487 170.452 114.82 170.788 114.232C171.124 113.644 171.576 113.182 172.146 112.846C172.724 112.501 173.378 112.328 174.106 112.328C174.834 112.328 175.482 112.496 176.052 112.832C176.63 113.168 177.083 113.63 177.41 114.218C177.746 114.806 177.914 115.478 177.914 116.234C177.914 116.999 177.741 117.681 177.396 118.278C177.05 118.866 176.588 119.328 176.01 119.664C175.44 120 174.806 120.168 174.106 120.168ZM174.106 119.118C174.61 119.118 175.062 118.992 175.464 118.74C175.874 118.488 176.196 118.143 176.43 117.704C176.672 117.265 176.794 116.775 176.794 116.234C176.794 115.693 176.672 115.207 176.43 114.778C176.196 114.349 175.874 114.008 175.464 113.756C175.062 113.504 174.61 113.378 174.106 113.378C173.602 113.378 173.144 113.504 172.734 113.756C172.332 114.008 172.01 114.349 171.768 114.778C171.525 115.207 171.404 115.693 171.404 116.234C171.404 116.775 171.525 117.265 171.768 117.704C172.01 118.143 172.332 118.488 172.734 118.74C173.144 118.992 173.602 119.118 174.106 119.118ZM179.766 120V112.496H180.816V113.924L180.648 113.714C180.853 113.275 181.156 112.935 181.558 112.692C181.968 112.449 182.416 112.328 182.902 112.328C183.48 112.328 184.003 112.491 184.47 112.818C184.936 113.145 185.268 113.569 185.464 114.092L185.17 114.106C185.356 113.527 185.678 113.089 186.136 112.79C186.602 112.482 187.116 112.328 187.676 112.328C188.18 112.328 188.642 112.449 189.062 112.692C189.491 112.935 189.832 113.271 190.084 113.7C190.345 114.12 190.476 114.596 190.476 115.128V120H189.426V115.534C189.426 115.077 189.342 114.689 189.174 114.372C189.015 114.055 188.796 113.812 188.516 113.644C188.236 113.467 187.914 113.378 187.55 113.378C187.195 113.378 186.873 113.467 186.584 113.644C186.294 113.812 186.066 114.059 185.898 114.386C185.73 114.703 185.646 115.086 185.646 115.534V120H184.596V115.534C184.596 115.077 184.512 114.689 184.344 114.372C184.185 114.055 183.966 113.812 183.686 113.644C183.406 113.467 183.084 113.378 182.72 113.378C182.356 113.378 182.029 113.467 181.74 113.644C181.46 113.812 181.236 114.059 181.068 114.386C180.9 114.703 180.816 115.086 180.816 115.534V120H179.766ZM195.896 120.168C195.196 120.168 194.562 120 193.992 119.664C193.432 119.319 192.989 118.847 192.662 118.25C192.336 117.653 192.172 116.976 192.172 116.22C192.172 115.464 192.331 114.797 192.648 114.218C192.966 113.63 193.395 113.168 193.936 112.832C194.487 112.496 195.103 112.328 195.784 112.328C196.326 112.328 196.806 112.431 197.226 112.636C197.656 112.832 198.02 113.103 198.318 113.448C198.617 113.784 198.846 114.167 199.004 114.596C199.163 115.016 199.242 115.45 199.242 115.898C199.242 115.991 199.238 116.099 199.228 116.22C199.219 116.332 199.205 116.449 199.186 116.57H192.844V115.59H198.584L198.08 116.01C198.164 115.497 198.104 115.039 197.898 114.638C197.702 114.227 197.418 113.905 197.044 113.672C196.671 113.429 196.251 113.308 195.784 113.308C195.318 113.308 194.884 113.429 194.482 113.672C194.09 113.915 193.782 114.255 193.558 114.694C193.334 115.123 193.246 115.637 193.292 116.234C193.246 116.831 193.339 117.354 193.572 117.802C193.815 118.241 194.142 118.581 194.552 118.824C194.972 119.067 195.42 119.188 195.896 119.188C196.447 119.188 196.909 119.057 197.282 118.796C197.656 118.535 197.959 118.208 198.192 117.816L199.088 118.292C198.939 118.628 198.71 118.941 198.402 119.23C198.094 119.51 197.726 119.739 197.296 119.916C196.876 120.084 196.41 120.168 195.896 120.168ZM203.627 120V109.57H208.009C208.597 109.57 209.105 109.682 209.535 109.906C209.973 110.121 210.309 110.424 210.543 110.816C210.785 111.208 210.907 111.665 210.907 112.188C210.907 112.729 210.771 113.21 210.501 113.63C210.239 114.041 209.861 114.353 209.367 114.568L209.353 114.232C209.763 114.381 210.113 114.591 210.403 114.862C210.701 115.133 210.93 115.45 211.089 115.814C211.247 116.169 211.327 116.551 211.327 116.962C211.327 117.895 211.028 118.637 210.431 119.188C209.843 119.729 209.04 120 208.023 120H203.627ZM204.747 118.95H208.023C208.685 118.95 209.213 118.777 209.605 118.432C210.006 118.077 210.207 117.592 210.207 116.976C210.207 116.369 210.006 115.889 209.605 115.534C209.213 115.17 208.685 114.988 208.023 114.988H204.747V118.95ZM204.747 113.98H207.925C208.485 113.98 208.933 113.817 209.269 113.49C209.614 113.163 209.787 112.743 209.787 112.23C209.787 111.707 209.614 111.311 209.269 111.04C208.933 110.76 208.485 110.62 207.925 110.62H204.747V113.98ZM215.35 120.168C214.874 120.168 214.449 120.079 214.076 119.902C213.702 119.715 213.408 119.463 213.194 119.146C212.979 118.829 212.872 118.465 212.872 118.054C212.872 117.662 212.956 117.307 213.124 116.99C213.292 116.663 213.553 116.388 213.908 116.164C214.262 115.94 214.715 115.781 215.266 115.688L218.206 115.198V116.15L215.518 116.598C214.976 116.691 214.584 116.864 214.342 117.116C214.108 117.368 213.992 117.667 213.992 118.012C213.992 118.348 214.122 118.633 214.384 118.866C214.654 119.099 215 119.216 215.42 119.216C215.933 119.216 216.381 119.109 216.764 118.894C217.146 118.67 217.445 118.371 217.66 117.998C217.874 117.625 217.982 117.209 217.982 116.752V114.848C217.982 114.4 217.818 114.036 217.492 113.756C217.165 113.476 216.74 113.336 216.218 113.336C215.76 113.336 215.359 113.453 215.014 113.686C214.668 113.91 214.412 114.204 214.244 114.568L213.292 114.05C213.432 113.733 213.651 113.443 213.95 113.182C214.258 112.921 214.608 112.715 215 112.566C215.392 112.407 215.798 112.328 216.218 112.328C216.768 112.328 217.254 112.435 217.674 112.65C218.103 112.865 218.434 113.163 218.668 113.546C218.91 113.919 219.032 114.353 219.032 114.848V120H217.982V118.502L218.136 118.656C218.005 118.936 217.8 119.193 217.52 119.426C217.249 119.65 216.927 119.832 216.554 119.972C216.19 120.103 215.788 120.168 215.35 120.168ZM224.621 120.168C223.884 120.168 223.235 119.995 222.675 119.65C222.115 119.305 221.677 118.838 221.359 118.25C221.042 117.653 220.883 116.981 220.883 116.234C220.883 115.487 221.042 114.82 221.359 114.232C221.677 113.644 222.115 113.182 222.675 112.846C223.235 112.501 223.884 112.328 224.621 112.328C225.088 112.328 225.527 112.412 225.937 112.58C226.348 112.748 226.712 112.977 227.029 113.266C227.347 113.546 227.585 113.873 227.743 114.246L226.791 114.736C226.605 114.335 226.32 114.008 225.937 113.756C225.555 113.504 225.116 113.378 224.621 113.378C224.127 113.378 223.679 113.504 223.277 113.756C222.885 113.999 222.573 114.339 222.339 114.778C222.115 115.207 222.003 115.697 222.003 116.248C222.003 116.789 222.115 117.279 222.339 117.718C222.573 118.147 222.885 118.488 223.277 118.74C223.679 118.992 224.127 119.118 224.621 119.118C225.116 119.118 225.55 118.992 225.923 118.74C226.306 118.488 226.595 118.152 226.791 117.732L227.743 118.25C227.585 118.614 227.347 118.941 227.029 119.23C226.712 119.519 226.348 119.748 225.937 119.916C225.527 120.084 225.088 120.168 224.621 120.168ZM229.586 120V109.402H230.636V116.822L230.188 116.752L234.402 112.496H235.76L232.82 115.506L236.026 120H234.766L231.756 115.842L232.428 115.898L230.286 118.11L230.636 117.242V120H229.586Z" fill="white"/>
<g clip-path="url(#clip0_4802_18247)">
<path d="M257.293 117.602V111.269C257.293 110.439 256.62 109.766 255.79 109.766C254.96 109.766 254.288 110.439 254.288 111.269V112.823L250.217 108.752C249.708 108.244 248.884 108.244 248.375 108.752C247.866 109.261 247.866 110.086 248.375 110.594L247.445 109.665C246.937 109.156 246.112 109.156 245.603 109.665C245.095 110.173 245.095 110.998 245.603 111.506L246.142 112.045C245.633 111.536 244.808 111.536 244.3 112.045C243.791 112.553 243.791 113.378 244.3 113.887L245.628 115.215C245.12 114.706 244.295 114.706 243.786 115.215C243.278 115.724 243.278 116.548 243.786 117.057L247.887 121.158C249.992 123.263 253.405 123.263 255.51 121.158L256.039 120.629C256.875 119.793 257.293 118.698 257.293 117.602C257.293 117.602 257.293 117.602 257.293 117.602Z" fill="#F6EE86"/>
<path d="M245.819 115.406L245.628 115.215L245.155 114.913C244.693 114.745 244.156 114.845 243.786 115.215C243.278 115.724 243.278 116.548 243.786 117.057C243.786 117.057 245.417 118.688 246.319 119.589C245.494 118.162 245.329 116.392 245.819 115.406Z" fill="#EED076"/>
<path d="M244.3 113.887L245.013 114.6C244.885 114.204 244.573 112.614 245.123 111.667C244.823 111.69 244.529 111.815 244.3 112.045C243.791 112.553 243.791 113.378 244.3 113.887Z" fill="#EED076"/>
<path d="M250.982 107.374C251.723 107.525 252.316 108.098 252.493 108.834C252.528 108.976 252.67 109.063 252.812 109.029C252.953 108.994 253.04 108.852 253.006 108.71C252.781 107.777 252.028 107.049 251.087 106.857C250.944 106.828 250.805 106.92 250.776 107.062C250.747 107.205 250.839 107.344 250.982 107.374ZM251.128 105.522C252.719 105.848 253.994 107.079 254.374 108.659C254.409 108.8 254.551 108.887 254.692 108.853C254.834 108.819 254.921 108.677 254.887 108.535C254.459 106.757 253.024 105.372 251.233 105.005C251.091 104.976 250.951 105.068 250.922 105.211C250.893 105.354 250.985 105.493 251.128 105.522ZM244.047 121.502C242.467 121.122 241.236 119.847 240.91 118.256C240.881 118.113 240.742 118.021 240.599 118.05C240.456 118.079 240.364 118.219 240.393 118.361C240.76 120.152 242.145 121.587 243.923 122.015C244.064 122.049 244.207 121.962 244.241 121.821C244.275 121.679 244.188 121.537 244.047 121.502ZM255.79 109.503C254.816 109.503 254.024 110.295 254.024 111.269V112.187L250.403 108.566C249.791 107.954 248.801 107.954 248.189 108.566C247.915 108.839 247.755 109.196 247.733 109.579L247.632 109.478C247.021 108.867 246.027 108.868 245.417 109.478C244.896 109.999 244.819 110.798 245.187 111.401C244.797 111.409 244.41 111.562 244.113 111.858C243.503 112.469 243.503 113.463 244.113 114.073L244.614 114.573C244.244 114.595 243.881 114.747 243.6 115.029C242.989 115.639 242.989 116.633 243.6 117.243L247.399 121.043C247.502 121.145 247.669 121.145 247.772 121.043C247.875 120.94 247.875 120.773 247.772 120.67L243.973 116.871C243.568 116.466 243.568 115.807 243.973 115.402C244.379 114.996 245.036 114.996 245.442 115.402L247.385 117.344C247.488 117.447 247.654 117.447 247.757 117.344C247.86 117.241 247.86 117.075 247.757 116.972C247.753 116.967 244.536 113.75 244.486 113.7C244.081 113.295 244.081 112.636 244.486 112.231C244.891 111.827 245.549 111.826 245.954 112.23L245.955 112.231C246.162 112.438 248.753 115.029 248.9 115.176C249.003 115.279 249.17 115.279 249.273 115.176C249.376 115.073 249.376 114.907 249.273 114.804C248.855 114.385 246.176 111.706 245.79 111.32C245.385 110.915 245.385 110.256 245.79 109.851C246.195 109.446 246.854 109.446 247.259 109.851L250.713 113.305C250.816 113.408 250.983 113.408 251.086 113.305C251.188 113.202 251.188 113.035 251.086 112.932L248.561 110.408C248.156 110.003 248.156 109.344 248.561 108.939C248.967 108.533 249.624 108.533 250.03 108.939L254.101 113.01C254.267 113.175 254.551 113.058 254.551 112.823V111.269C254.551 110.586 255.107 110.03 255.79 110.03C256.473 110.03 257.029 110.586 257.029 111.269V111.678C257.029 111.824 257.147 111.942 257.293 111.942C257.438 111.942 257.556 111.824 257.556 111.678V111.269C257.556 110.295 256.764 109.503 255.79 109.503ZM253.377 114.183C253.253 114.107 253.091 114.146 253.015 114.27C252.296 115.446 252.194 116.905 252.743 118.173C252.802 118.307 252.957 118.367 253.09 118.31C253.224 118.252 253.285 118.096 253.227 117.963C252.746 116.853 252.835 115.575 253.465 114.545C253.541 114.421 253.502 114.258 253.377 114.183ZM257.293 112.671C257.147 112.671 257.029 112.789 257.029 112.935V117.602C257.029 118.675 256.611 119.684 255.852 120.443L255.324 120.971C253.518 122.777 250.697 122.955 248.692 121.5C248.574 121.414 248.41 121.441 248.324 121.558C248.238 121.676 248.265 121.841 248.382 121.927C250.603 123.538 253.713 123.328 255.697 121.344L256.225 120.816C257.084 119.957 257.556 118.816 257.556 117.602V112.935C257.556 112.789 257.438 112.671 257.293 112.671ZM244.222 119.621C243.487 119.444 242.913 118.851 242.762 118.11C242.732 117.967 242.593 117.875 242.45 117.904C242.308 117.933 242.216 118.073 242.245 118.215C242.437 119.156 243.165 119.909 244.099 120.134C244.24 120.168 244.382 120.081 244.417 119.94C244.451 119.798 244.364 119.656 244.222 119.621Z" fill="black"/>
</g>
<defs>
<linearGradient id="paint0_linear_4802_18247" x1="0" y1="0" x2="57.6308" y2="252.969" gradientUnits="userSpaceOnUse">
<stop stop-color="#7450FE"/>
<stop offset="1" stop-color="#3513DD"/>
</linearGradient>
<clipPath id="clip0_4802_18247">
<rect width="18" height="18" fill="white" transform="translate(239.972 105)"/>
</clipPath>
</defs>
</svg>
