<svg width="24" height="24" viewBox="0 0 24 24" fill="#000" xmlns="http://www.w3.org/2000/svg">
<path d="M8 2V5" stroke="url(#paint0_linear_5051_13761)" stroke-width="1.5" stroke-miterlimit="10" stroke-linecap="round" stroke-linejoin="round"/>
<path d="M16 2V5" stroke="url(#paint1_linear_5051_13761)" stroke-width="1.5" stroke-miterlimit="10" stroke-linecap="round" stroke-linejoin="round"/>
<path d="M3.5 9.09009H20.5" stroke="url(#paint2_linear_5051_13761)" stroke-width="1.5" stroke-miterlimit="10" stroke-linecap="round" stroke-linejoin="round"/>
<path d="M21 8.5V17C21 20 19.5 22 16 22H8C4.5 22 3 20 3 17V8.5C3 5.5 4.5 3.5 8 3.5H16C19.5 3.5 21 5.5 21 8.5Z" stroke="url(#paint3_linear_5051_13761)" stroke-width="1.5" stroke-miterlimit="10" stroke-linecap="round" stroke-linejoin="round"/>
<path d="M11.9955 13.7H12.0045" stroke="url(#paint4_linear_5051_13761)" stroke-width="2" stroke-linecap="round" stroke-linejoin="round"/>
<path d="M8.29431 13.7H8.30329" stroke="url(#paint5_linear_5051_13761)" stroke-width="2" stroke-linecap="round" stroke-linejoin="round"/>
<path d="M8.29431 16.7H8.30329" stroke="url(#paint6_linear_5051_13761)" stroke-width="2" stroke-linecap="round" stroke-linejoin="round"/>
<defs>
<linearGradient id="paint0_linear_5051_13761" x1="8" y1="2" x2="10.0706" y2="3.47038" gradientUnits="userSpaceOnUse">
<stop stop-color="#7450FE"/>
<stop offset="1" stop-color="#3513DD"/>
</linearGradient>
<linearGradient id="paint1_linear_5051_13761" x1="16" y1="2" x2="18.0706" y2="3.47038" gradientUnits="userSpaceOnUse">
<stop stop-color="#7450FE"/>
<stop offset="1" stop-color="#3513DD"/>
</linearGradient>
<linearGradient id="paint2_linear_5051_13761" x1="3.5" y1="9.09009" x2="3.54034" y2="10.5511" gradientUnits="userSpaceOnUse">
<stop stop-color="#7450FE"/>
<stop offset="1" stop-color="#3513DD"/>
</linearGradient>
<linearGradient id="paint3_linear_5051_13761" x1="3" y1="3.5" x2="13.5856" y2="25.4416" gradientUnits="userSpaceOnUse">
<stop stop-color="#7450FE"/>
<stop offset="1" stop-color="#3513DD"/>
</linearGradient>
<linearGradient id="paint4_linear_5051_13761" x1="11.501" y1="13.2" x2="12.0641" y2="14.3972" gradientUnits="userSpaceOnUse">
<stop stop-color="#7450FE"/>
<stop offset="1" stop-color="#3513DD"/>
</linearGradient>
<linearGradient id="paint5_linear_5051_13761" x1="7.7998" y1="13.2" x2="8.36291" y2="14.3972" gradientUnits="userSpaceOnUse">
<stop stop-color="#7450FE"/>
<stop offset="1" stop-color="#3513DD"/>
</linearGradient>
<linearGradient id="paint6_linear_5051_13761" x1="7.7998" y1="16.2" x2="8.36291" y2="17.3972" gradientUnits="userSpaceOnUse">
<stop stop-color="#7450FE"/>
<stop offset="1" stop-color="#3513DD"/>
</linearGradient>
</defs>
</svg>
