<svg width="20" height="21" viewBox="0 0 20 21" fill="none" xmlns="http://www.w3.org/2000/svg">
<path d="M10 9.2667C9.65833 9.2667 9.375 8.98337 9.375 8.6417V5.8667C9.375 5.52503 9.65833 5.2417 10 5.2417C10.3417 5.2417 10.625 5.52503 10.625 5.8667V8.6417C10.625 8.9917 10.3417 9.2667 10 9.2667Z" fill="white"/>
<path d="M10.0167 17.4583C7.86672 17.4583 5.72505 17.1167 3.68339 16.4333C2.92505 16.1833 2.35005 15.6417 2.10005 14.9583C1.85005 14.275 1.93339 13.4917 2.34172 12.8083L3.40005 11.0417C3.63339 10.65 3.84172 9.91666 3.84172 9.45833V7.70832C3.84172 4.29999 6.60839 1.53333 10.0167 1.53333C13.4251 1.53333 16.1917 4.29999 16.1917 7.70832V9.45833C16.1917 9.90833 16.4001 10.65 16.6334 11.0417L17.6917 12.8083C18.0834 13.4583 18.1501 14.2333 17.8917 14.9417C17.6334 15.65 17.0667 16.1917 16.3501 16.4333C14.3084 17.125 12.1667 17.4583 10.0167 17.4583ZM10.0167 2.79166C7.30005 2.79166 5.09172 4.99999 5.09172 7.71666V9.46666C5.09172 10.1417 4.82505 11.1167 4.47505 11.6917L3.41672 13.4667C3.20005 13.825 3.15005 14.2083 3.27505 14.5417C3.40005 14.875 3.68339 15.125 4.08339 15.2583C7.91672 16.5333 12.1334 16.5333 15.9667 15.2583C16.3251 15.1417 16.6001 14.875 16.7251 14.525C16.8584 14.175 16.8167 13.7917 16.6251 13.4667L15.5667 11.7C15.2167 11.125 14.9501 10.15 14.9501 9.47499V7.72499C14.9417 4.99999 12.7334 2.79166 10.0167 2.79166Z" fill="white"/>
<path d="M9.99961 19.5833C9.10794 19.5833 8.23294 19.2167 7.59961 18.5834C6.96628 17.95 6.59961 17.075 6.59961 16.1833H7.84961C7.84961 16.75 8.08294 17.3 8.48294 17.7C8.88294 18.1 9.43294 18.3333 9.99961 18.3333C11.1829 18.3333 12.1496 17.3667 12.1496 16.1833H13.3996C13.3996 18.0583 11.8746 19.5833 9.99961 19.5833Z" fill="white"/>
</svg>
