<svg width="36" height="36" viewBox="0 0 36 36" fill="none" xmlns="http://www.w3.org/2000/svg">
<rect width="36" height="36" rx="18" fill="url(#paint0_linear_4802_20319)" fill-opacity="0.08"/>
<path d="M20.5 23.625H15.5C15.1133 23.6246 14.7426 23.4708 14.4692 23.1974C14.1959 22.924 14.0421 22.5533 14.0416 22.1667V20.9167C14.0979 20.3527 14.2841 19.8094 14.5858 19.3295C14.8874 18.8496 15.2961 18.4461 15.78 18.1508C15.8027 18.1329 15.8209 18.11 15.8332 18.0838C15.8455 18.0576 15.8515 18.0289 15.8508 18C15.8516 17.9712 15.8456 17.9426 15.8333 17.9165C15.821 17.8905 15.8027 17.8677 15.78 17.85C15.2964 17.5542 14.8878 17.1506 14.5862 16.6706C14.2847 16.1906 14.0983 15.6474 14.0416 15.0833V13.8333C14.0421 13.4467 14.1959 13.076 14.4692 12.8026C14.7426 12.5292 15.1133 12.3754 15.5 12.375H20.5C20.8866 12.3754 21.2573 12.5292 21.5307 12.8026C21.8041 13.076 21.9579 13.4467 21.9583 13.8333V15.0833C21.902 15.6473 21.7158 16.1906 21.4142 16.6705C21.1125 17.1504 20.7038 17.5539 20.22 17.8492C20.1972 17.8671 20.179 17.89 20.1667 17.9162C20.1544 17.9424 20.1484 17.9711 20.1491 18C20.1483 18.0288 20.1543 18.0574 20.1666 18.0835C20.1789 18.1095 20.1972 18.1323 20.22 18.15C20.7035 18.4458 21.1121 18.8494 21.4137 19.3294C21.7153 19.8094 21.9017 20.3526 21.9583 20.9167V22.1667C21.9579 22.5533 21.8041 22.924 21.5307 23.1974C21.2573 23.4708 20.8866 23.6246 20.5 23.625ZM15.5 13.625C15.4447 13.625 15.3917 13.6469 15.3526 13.686C15.3136 13.7251 15.2916 13.7781 15.2916 13.8333V15.0833C15.3586 15.4507 15.5045 15.7992 15.7191 16.1047C15.9338 16.4103 16.2121 16.6657 16.535 16.8533C16.7109 16.9883 16.8534 17.1619 16.9515 17.3607C17.0496 17.5595 17.1007 17.7783 17.1007 18C17.1007 18.2217 17.0496 18.4405 16.9515 18.6393C16.8534 18.8381 16.7109 19.0117 16.535 19.1467C16.2121 19.3343 15.9338 19.5897 15.7191 19.8953C15.5045 20.2008 15.3586 20.5493 15.2916 20.9167V22.1667C15.2916 22.2219 15.3136 22.2749 15.3526 22.314C15.3917 22.3531 15.4447 22.375 15.5 22.375H20.5C20.5552 22.375 20.6082 22.3531 20.6473 22.314C20.6863 22.2749 20.7083 22.2219 20.7083 22.1667V20.9167C20.6413 20.5493 20.4954 20.2008 20.2808 19.8953C20.0662 19.5897 19.7878 19.3343 19.465 19.1467C19.289 19.0117 19.1465 18.8381 19.0484 18.6393C18.9503 18.4405 18.8993 18.2217 18.8993 18C18.8993 17.7783 18.9503 17.5595 19.0484 17.3607C19.1465 17.1619 19.289 16.9883 19.465 16.8533C19.7878 16.6657 20.0662 16.4103 20.2808 16.1047C20.4954 15.7992 20.6413 15.4507 20.7083 15.0833V13.8333C20.7083 13.7781 20.6863 13.7251 20.6473 13.686C20.6082 13.6469 20.5552 13.625 20.5 13.625H15.5Z" fill="url(#paint1_linear_4802_20319)"/>
<path d="M18.0175 26.9601C17.6144 26.9591 17.2119 26.9313 16.8125 26.8767C16.7312 26.8658 16.6529 26.8391 16.582 26.7979C16.5111 26.7568 16.449 26.7021 16.3992 26.6369C16.3495 26.5717 16.313 26.4974 16.292 26.4182C16.271 26.3389 16.2658 26.2563 16.2767 26.1751C16.2865 26.0933 16.3126 26.0144 16.3534 25.9429C16.3942 25.8713 16.4489 25.8087 16.5143 25.7587C16.5797 25.7087 16.6544 25.6723 16.7341 25.6516C16.8138 25.631 16.8969 25.6265 16.9783 25.6384C18.4891 25.8401 20.0257 25.5893 21.394 24.9179C22.7623 24.2464 23.9009 23.1844 24.6657 21.8661C25.4306 20.5477 25.7875 19.0322 25.6912 17.5111C25.595 15.9899 25.0499 14.5315 24.125 13.3201C23.9027 13.0299 23.6605 12.7556 23.4 12.4992C23.2819 12.3829 23.2148 12.2243 23.2135 12.0585C23.2123 11.8927 23.277 11.7332 23.3933 11.6151C23.5097 11.4969 23.6682 11.4299 23.834 11.4286C23.9998 11.4274 24.1594 11.492 24.2775 11.6084C24.5794 11.9059 24.86 12.2242 25.1175 12.5609C26.1307 13.8872 26.7533 15.4701 26.9151 17.1312C27.0769 18.7924 26.7716 20.4657 26.0335 21.9626C25.2954 23.4595 24.1539 24.7205 22.7376 25.6035C21.3213 26.4865 19.6865 26.9563 18.0175 26.9601Z" fill="url(#paint2_linear_4802_20319)"/>
<path d="M12.16 24.5717C11.9961 24.5716 11.8387 24.5073 11.7217 24.3925C10.8073 23.4923 10.0968 22.4063 9.63804 21.2079C9.17932 20.0095 8.98311 18.7266 9.06266 17.4459C9.14221 16.1652 9.49566 14.9165 10.0991 13.7841C10.7026 12.6516 11.5421 11.6619 12.5608 10.8817C13.4938 10.164 14.5599 9.63879 15.6975 9.33652C16.8351 9.03424 18.0214 8.96094 19.1875 9.12088C19.3518 9.14298 19.5006 9.22945 19.6012 9.36127C19.7018 9.4931 19.7458 9.65947 19.7237 9.82379C19.7016 9.98812 19.6152 10.1369 19.4833 10.2375C19.3515 10.3381 19.1852 10.3821 19.0208 10.36C17.5098 10.158 15.9728 10.4086 14.6041 11.0801C13.2355 11.7516 12.0967 12.8139 11.3318 14.1326C10.5668 15.4512 10.2101 16.9671 10.3066 18.4886C10.4032 20.01 10.9487 21.4686 11.8742 22.68C12.0964 22.9705 12.3387 23.245 12.5992 23.5017C12.717 23.6181 12.7838 23.7765 12.7849 23.9422C12.786 24.1078 12.7213 24.2671 12.605 24.385C12.5472 24.4445 12.478 24.4916 12.4015 24.5237C12.3251 24.5558 12.2429 24.5721 12.16 24.5717Z" fill="url(#paint3_linear_4802_20319)"/>
<path d="M12.3917 25.0092C12.3638 25.0093 12.336 25.0074 12.3084 25.0034L9.97506 24.6909C9.81449 24.6646 9.6705 24.5768 9.57367 24.4461C9.47684 24.3153 9.43481 24.152 9.45651 23.9907C9.47822 23.8295 9.56194 23.6831 9.68989 23.5826C9.81784 23.4821 9.97993 23.4354 10.1417 23.4526L11.8592 23.6817L12.0884 21.9651C12.0983 21.8833 12.1245 21.8043 12.1654 21.7328C12.2063 21.6613 12.2611 21.5987 12.3265 21.5487C12.392 21.4987 12.4668 21.4623 12.5466 21.4416C12.6263 21.4209 12.7094 21.4165 12.7909 21.4284C12.9551 21.4506 13.1039 21.537 13.2045 21.6687C13.3051 21.8004 13.3493 21.9666 13.3276 22.1309L13.0151 24.4642C12.9955 24.6155 12.9214 24.7544 12.8066 24.8548C12.6918 24.9551 12.5442 25.0101 12.3917 25.0092Z" fill="url(#paint4_linear_4802_20319)"/>
<path d="M23.2976 14.5776C23.2697 14.5777 23.2418 14.5757 23.2142 14.5717C23.05 14.5496 22.9012 14.4631 22.8006 14.3314C22.7 14.1997 22.6558 14.0335 22.6776 13.8692L22.9901 11.5359C23 11.4541 23.0261 11.3752 23.0671 11.3037C23.108 11.2323 23.1628 11.1697 23.2283 11.1198C23.2937 11.0698 23.3686 11.0335 23.4483 11.0129C23.528 10.9924 23.6111 10.988 23.6926 11.0001L26.0259 11.3126C26.1865 11.3388 26.3304 11.4266 26.4273 11.5574C26.5241 11.6881 26.5661 11.8515 26.5444 12.0127C26.5227 12.174 26.439 12.3204 26.3111 12.4209C26.1831 12.5214 26.021 12.568 25.8592 12.5509L24.1417 12.3217L23.9167 14.0351C23.8967 14.1851 23.8229 14.3229 23.7091 14.4226C23.5952 14.5224 23.449 14.5775 23.2976 14.5776Z" fill="url(#paint5_linear_4802_20319)"/>
<defs>
<linearGradient id="paint0_linear_4802_20319" x1="16.4598" y1="30.547" x2="22.223" y2="-1.78787" gradientUnits="userSpaceOnUse">
<stop stop-color="#FE8551"/>
<stop offset="1" stop-color="#ED618E"/>
</linearGradient>
<linearGradient id="paint1_linear_4802_20319" x1="17.6613" y1="21.9209" x2="20.1427" y2="12.1238" gradientUnits="userSpaceOnUse">
<stop stop-color="#FE8551"/>
<stop offset="1" stop-color="#ED618E"/>
</linearGradient>
<linearGradient id="paint2_linear_4802_20319" x1="21.157" y1="24.6075" x2="24.6511" y2="11.1192" gradientUnits="userSpaceOnUse">
<stop stop-color="#FE8551"/>
<stop offset="1" stop-color="#ED618E"/>
</linearGradient>
<linearGradient id="paint3_linear_4802_20319" x1="13.9303" y1="22.2189" x2="17.4258" y2="8.72962" gradientUnits="userSpaceOnUse">
<stop stop-color="#FE8551"/>
<stop offset="1" stop-color="#ED618E"/>
</linearGradient>
<linearGradient id="paint4_linear_4802_20319" x1="11.2259" y1="24.4659" x2="11.759" y2="21.2292" gradientUnits="userSpaceOnUse">
<stop stop-color="#FE8551"/>
<stop offset="1" stop-color="#ED618E"/>
</linearGradient>
<linearGradient id="paint5_linear_4802_20319" x1="24.4452" y1="14.0347" x2="24.9779" y2="10.8009" gradientUnits="userSpaceOnUse">
<stop stop-color="#FE8551"/>
<stop offset="1" stop-color="#ED618E"/>
</linearGradient>
</defs>
</svg>
