<svg width="37" height="36" viewBox="0 0 37 36" fill="none" xmlns="http://www.w3.org/2000/svg">
<rect x="0.5" width="36" height="36" rx="18" fill="#11BF85" fill-opacity="0.08"/>
<path d="M18.5833 24.3166C18.3282 24.3165 18.0776 24.2492 17.8566 24.1216L13.5233 21.6216C13.1887 21.4279 12.9446 21.1092 12.8446 20.7357C12.7446 20.3621 12.7969 19.9642 12.99 19.6291L13.615 18.5458C13.9454 18.086 14.3778 17.7089 14.8784 17.4442C15.3789 17.1795 15.9339 17.0343 16.5 17.02C16.5283 17.015 16.5551 17.0039 16.5786 16.9875C16.6021 16.971 16.6217 16.9496 16.6361 16.9247C16.6504 16.8998 16.659 16.8721 16.6614 16.8435C16.6638 16.8149 16.6599 16.7861 16.65 16.7591C16.3788 16.2615 16.2267 15.7077 16.2056 15.1414C16.1845 14.575 16.2949 14.0114 16.5283 13.495L17.1533 12.4116C17.3473 12.0774 17.6657 11.8336 18.0389 11.7335C18.4121 11.6334 18.8098 11.6852 19.145 11.8775L23.4783 14.3775C23.813 14.5713 24.0571 14.8899 24.157 15.2634C24.257 15.637 24.2047 16.0349 24.0116 16.37L23.3866 17.4533C23.0561 17.9135 22.6235 18.2908 22.1226 18.5557C21.6218 18.8206 21.0664 18.9658 20.5 18.98C20.4717 18.9847 20.4447 18.9956 20.4211 19.0119C20.3975 19.0283 20.3778 19.0496 20.3635 19.0745C20.3491 19.0994 20.3405 19.1271 20.3382 19.1557C20.3358 19.1843 20.3399 19.2131 20.35 19.24C20.6213 19.7377 20.7735 20.2917 20.7946 20.8582C20.8157 21.4247 20.7051 21.9884 20.4716 22.505L19.8466 23.5883C19.7185 23.8099 19.5343 23.9939 19.3125 24.1217C19.0908 24.2496 18.8393 24.3168 18.5833 24.3166ZM18.4166 12.9333C18.38 12.9332 18.344 12.9428 18.3122 12.9611C18.2805 12.9794 18.2541 13.0057 18.2358 13.0375L17.6108 14.1208C17.4847 14.4723 17.4366 14.847 17.4697 15.219C17.5028 15.5909 17.6163 15.9512 17.8025 16.275C17.887 16.4799 17.9233 16.7015 17.9086 16.9227C17.8939 17.1439 17.8286 17.3588 17.7177 17.5507C17.6068 17.7427 17.4533 17.9066 17.2691 18.0299C17.0848 18.1531 16.8747 18.2324 16.655 18.2616C16.2817 18.2624 15.913 18.3443 15.5744 18.5015C15.2359 18.6588 14.9355 18.8877 14.6941 19.1725L14.0691 20.2558C14.0554 20.2795 14.0464 20.3057 14.0428 20.3328C14.0392 20.36 14.0409 20.3876 14.048 20.414C14.055 20.4405 14.0672 20.4653 14.0838 20.4871C14.1005 20.5088 14.1213 20.5271 14.145 20.5408L18.4783 23.0408C18.5263 23.0678 18.5829 23.0749 18.6361 23.0606C18.6892 23.0462 18.7346 23.0116 18.7625 22.9641L19.3875 21.8808C19.5135 21.5293 19.5617 21.1546 19.5286 20.7826C19.4955 20.4107 19.3819 20.0504 19.1958 19.7266C19.1111 19.5218 19.0747 19.3002 19.0893 19.0789C19.1039 18.8577 19.1692 18.6428 19.2801 18.4509C19.391 18.2589 19.5446 18.0951 19.729 17.9719C19.9133 17.8488 20.1235 17.7697 20.3433 17.7408C20.7166 17.7395 21.0852 17.6574 21.4237 17.5C21.7622 17.3426 22.0626 17.1137 22.3041 16.8291L22.9291 15.7458C22.9429 15.7221 22.9519 15.696 22.9555 15.6688C22.9591 15.6417 22.9574 15.6141 22.9503 15.5876C22.9433 15.5611 22.9311 15.5363 22.9144 15.5145C22.8978 15.4928 22.877 15.4745 22.8533 15.4608L18.52 12.9608C18.4885 12.9429 18.4529 12.9334 18.4166 12.9333Z" fill="#11BF85"/>
<path d="M26.8333 18.6251C26.6676 18.6251 26.5086 18.5592 26.3914 18.442C26.2742 18.3248 26.2083 18.1658 26.2083 18.0001C26.2084 16.4754 25.7564 14.985 24.9094 13.7173C24.0624 12.4496 22.8585 11.4615 21.4499 10.8781C20.0413 10.2946 18.4914 10.142 16.996 10.4394C15.5007 10.7369 14.1272 11.4711 13.0491 12.5492C12.7907 12.808 12.5507 13.0845 12.3308 13.3767C12.2314 13.5093 12.0833 13.597 11.9192 13.6204C11.7551 13.6439 11.5884 13.6012 11.4558 13.5017C11.3232 13.4023 11.2355 13.2542 11.2121 13.0901C11.1887 12.926 11.2314 12.7593 11.3308 12.6267C11.5866 12.2888 11.865 11.9686 12.1641 11.6684C13.4168 10.4153 15.0128 9.56171 16.7505 9.2157C18.4883 8.86969 20.2895 9.04674 21.9266 9.72448C23.5637 10.4022 24.963 11.5502 25.9477 13.0232C26.9323 14.4963 27.458 16.2282 27.4583 18.0001C27.4583 18.1658 27.3925 18.3248 27.2753 18.442C27.158 18.5592 26.9991 18.6251 26.8333 18.6251Z" fill="#11BF85"/>
<path d="M18.5 26.9583C17.3235 26.9586 16.1585 26.727 15.0715 26.2769C13.9845 25.8267 12.9969 25.1669 12.165 24.335C11.3331 23.5031 10.6732 22.5154 10.2231 21.4285C9.77297 20.3415 9.54141 19.1765 9.54163 18C9.54163 17.8342 9.60747 17.6753 9.72468 17.5581C9.84189 17.4408 10.0009 17.375 10.1666 17.375C10.3324 17.375 10.4914 17.4408 10.6086 17.5581C10.7258 17.6753 10.7916 17.8342 10.7916 18C10.7915 19.5246 11.2436 21.015 12.0906 22.2827C12.9376 23.5505 14.1415 24.5385 15.55 25.122C16.9586 25.7054 18.5086 25.8581 20.0039 25.5606C21.4992 25.2632 22.8728 24.529 23.9508 23.4508C24.2091 23.1925 24.4488 22.9162 24.6683 22.6242C24.771 22.501 24.9171 22.422 25.0764 22.4034C25.2357 22.3848 25.3961 22.4281 25.5244 22.5243C25.6527 22.6206 25.7392 22.7624 25.766 22.9205C25.7927 23.0787 25.7578 23.2411 25.6683 23.3742C25.4129 23.7126 25.1344 24.0331 24.835 24.3333C24.005 25.1679 23.0177 25.8296 21.9303 26.2802C20.8429 26.7308 19.677 26.9613 18.5 26.9583Z" fill="#11BF85"/>
<path d="M25.5709 25.6958C25.4051 25.6958 25.2461 25.6299 25.1289 25.5127C25.0117 25.3955 24.9459 25.2365 24.9459 25.0708V23.3391H23.2134C23.0476 23.3391 22.8886 23.2733 22.7714 23.1561C22.6542 23.0388 22.5884 22.8799 22.5884 22.7141C22.5884 22.5484 22.6542 22.3894 22.7714 22.2722C22.8886 22.155 23.0476 22.0891 23.2134 22.0891H25.5709C25.7366 22.0891 25.8956 22.155 26.0128 22.2722C26.13 22.3894 26.1959 22.5484 26.1959 22.7141V25.0708C26.1959 25.2365 26.13 25.3955 26.0128 25.5127C25.8956 25.6299 25.7366 25.6958 25.5709 25.6958Z" fill="#11BF85"/>
<path d="M13.7859 13.9109H11.4292C11.2634 13.9109 11.1045 13.845 10.9873 13.7278C10.87 13.6106 10.8042 13.4516 10.8042 13.2859V10.9292C10.8042 10.7634 10.87 10.6045 10.9873 10.4873C11.1045 10.37 11.2634 10.3042 11.4292 10.3042C11.595 10.3042 11.7539 10.37 11.8711 10.4873C11.9884 10.6045 12.0542 10.7634 12.0542 10.9292V12.6609H13.7859C13.9516 12.6609 14.1106 12.7267 14.2278 12.8439C14.345 12.9611 14.4109 13.1201 14.4109 13.2859C14.4109 13.4516 14.345 13.6106 14.2278 13.7278C14.1106 13.845 13.9516 13.9109 13.7859 13.9109Z" fill="#11BF85"/>
</svg>
