<svg width="21" height="20" viewBox="0 0 21 20" fill="none" xmlns="http://www.w3.org/2000/svg">
<path d="M11.0648 16.6309C11.2937 16.6842 11.3147 16.9841 11.0917 17.0584L9.77504 17.4917C6.46671 18.5584 4.72504 17.6667 3.65004 14.3584L2.58337 11.0667C1.51671 7.75839 2.40004 6.00839 5.70837 4.94172L5.9757 4.85319C6.37857 4.71978 6.77416 5.12514 6.66525 5.53531C6.63457 5.65086 6.60457 5.76966 6.57504 5.89172L5.75837 9.38339C4.84171 13.3084 6.18337 15.4751 10.1084 16.4084L11.0648 16.6309Z" fill="#000"/>
<path d="M14.8083 2.67505L13.4167 2.35005C10.6333 1.69171 8.97499 2.23338 7.99999 4.25005C7.74999 4.75838 7.54999 5.37505 7.38332 6.08338L6.56665 9.57505C5.74999 13.0584 6.82499 14.775 10.3 15.6L11.7 15.9334C12.1833 16.05 12.6333 16.125 13.05 16.1584C15.65 16.4084 17.0333 15.1917 17.7333 12.1834L18.55 8.70005C19.3667 5.21671 18.3 3.49171 14.8083 2.67505ZM13.2417 11.1084C13.1667 11.3917 12.9167 11.575 12.6333 11.575C12.5833 11.575 12.5333 11.5667 12.475 11.5584L10.05 10.9417C9.71665 10.8584 9.51665 10.5167 9.59999 10.1834C9.68332 9.85005 10.025 9.65005 10.3583 9.73338L12.7833 10.35C13.125 10.4334 13.325 10.775 13.2417 11.1084ZM15.6833 8.29171C15.6083 8.57505 15.3583 8.75838 15.075 8.75838C15.025 8.75838 14.975 8.75005 14.9167 8.74171L10.875 7.71671C10.5417 7.63338 10.3417 7.29171 10.425 6.95838C10.5083 6.62505 10.85 6.42505 11.1833 6.50838L15.225 7.53338C15.5667 7.60838 15.7667 7.95005 15.6833 8.29171Z" fill="#000"/>
</svg>
