<svg width="17" height="18" viewBox="0 0 17 18" fill="none" xmlns="http://www.w3.org/2000/svg">
<path d="M15.2002 4.68471L10.4002 1.32637C9.09188 0.409706 7.08354 0.459706 5.82524 1.43471L1.65024 4.69304C0.816903 5.34304 0.158569 6.67637 0.158569 7.72633V13.4763C0.158569 15.6013 1.88357 17.3347 4.00857 17.3347H12.9919C15.1169 17.3347 16.8419 15.6097 16.8419 13.4847V7.83466C16.8419 6.70971 16.1169 5.32637 15.2002 4.68471ZM9.12521 14.0013C9.12521 14.343 8.84188 14.6263 8.50021 14.6263C8.15854 14.6263 7.87521 14.343 7.87521 14.0013V11.5013C7.87521 11.1597 8.15854 10.8763 8.50021 10.8763C8.84188 10.8763 9.12521 11.1597 9.12521 11.5013V14.0013Z" fill="#000"/>
<defs>
<linearGradient id="paint0_linear_4817_5780" x1="0.158569" y1="0.669922" x2="9.52398" y2="20.6438" gradientUnits="userSpaceOnUse">
<stop stop-color="#7450FE"/>
<stop offset="1" stop-color="#3513DD"/>
</linearGradient>
</defs>
</svg>
