<svg width="20" height="20" viewBox="0 0 20 20" fill="none" xmlns="http://www.w3.org/2000/svg">
<path d="M13.15 1.66663H6.84996C3.69996 1.66663 2.91663 2.50829 2.91663 5.86663V15.25C2.91663 17.4666 4.13329 17.9916 5.60829 16.4083L5.61663 16.4C6.29996 15.675 7.34163 15.7333 7.93329 16.525L8.77496 17.65C9.44996 18.5416 10.5416 18.5416 11.2166 17.65L12.0583 16.525C12.6583 15.725 13.7 15.6666 14.3833 16.4C15.8666 17.9833 17.075 17.4583 17.075 15.2416V5.86663C17.0833 2.50829 16.3 1.66663 13.15 1.66663ZM12.2916 8.95829H7.70829C7.36663 8.95829 7.08329 8.67496 7.08329 8.33329C7.08329 7.99163 7.36663 7.70829 7.70829 7.70829H12.2916C12.6333 7.70829 12.9166 7.99163 12.9166 8.33329C12.9166 8.67496 12.6333 8.95829 12.2916 8.95829Z" fill="#000"/>
</svg>
