<svg width="21" height="20" viewBox="0 0 21 20" fill="none" xmlns="http://www.w3.org/2000/svg">
<path d="M13.9916 1.66663H7.00829C3.97496 1.66663 2.16663 3.47496 2.16663 6.50829V13.4833C2.16663 16.525 3.97496 18.3333 7.00829 18.3333H13.9833C17.0166 18.3333 18.825 16.525 18.825 13.4916V6.50829C18.8333 3.47496 17.025 1.66663 13.9916 1.66663ZM14.8833 8.29996L12.9583 10.7833C12.7166 11.0916 12.375 11.2916 11.9833 11.3333C11.5916 11.3833 11.2083 11.275 10.9 11.0333L9.37496 9.83329C9.31663 9.78329 9.24996 9.78329 9.21663 9.79163C9.18329 9.79163 9.12496 9.80829 9.07496 9.87496L7.09163 12.45C6.96663 12.6083 6.78329 12.6916 6.59996 12.6916C6.46663 12.6916 6.33329 12.65 6.21663 12.5583C5.94163 12.35 5.89163 11.9583 6.09996 11.6833L8.08329 9.10829C8.32496 8.79996 8.66663 8.59996 9.05829 8.54996C9.44163 8.49996 9.83329 8.60829 10.1416 8.84996L11.6666 10.05C11.725 10.1 11.7833 10.1 11.825 10.0916C11.8583 10.0916 11.9166 10.075 11.9666 10.0083L13.8916 7.52496C14.1 7.24996 14.5 7.19996 14.7666 7.41663C15.0416 7.64163 15.0916 8.03329 14.8833 8.29996Z" fill="#000"/>
</svg>
