<svg width="32" height="32" viewBox="0 0 32 32" fill="none" xmlns="http://www.w3.org/2000/svg">
<path d="M16 30.3333C9.01337 30.3333 3.33337 24.6533 3.33337 17.6667C3.33337 10.68 9.01337 5 16 5C22.9867 5 28.6667 10.68 28.6667 17.6667C28.6667 24.6533 22.9867 30.3333 16 30.3333ZM16 7C10.12 7 5.33337 11.7867 5.33337 17.6667C5.33337 23.5467 10.12 28.3333 16 28.3333C21.88 28.3333 26.6667 23.5467 26.6667 17.6667C26.6667 11.7867 21.88 7 16 7Z" fill="#3513DD"/>
<path d="M16 18.3333C15.4533 18.3333 15 17.88 15 17.3333V10.6666C15 10.12 15.4533 9.66663 16 9.66663C16.5467 9.66663 17 10.12 17 10.6666V17.3333C17 17.88 16.5467 18.3333 16 18.3333Z" fill="#3513DD"/>
<path d="M20 3.66663H12C11.4533 3.66663 11 3.21329 11 2.66663C11 2.11996 11.4533 1.66663 12 1.66663H20C20.5467 1.66663 21 2.11996 21 2.66663C21 3.21329 20.5467 3.66663 20 3.66663Z" fill="#3513DD"/>
</svg>
