<svg width="26" height="28" viewBox="0 0 26 28" fill="none" xmlns="http://www.w3.org/2000/svg">
<g clip-path="url(#clip0_4802_20470)">
<path d="M14.0781 22.6548C12.922 22.034 11.6675 21.5594 10.6127 20.7925C8.68958 19.3941 6.44914 18.9921 4.19833 18.5669C4.06519 18.5415 3.93205 18.5182 3.79891 18.4942C3.08809 18.3663 2.63616 17.8066 2.72196 17.1597C2.81294 16.4735 3.41798 15.9989 4.1325 16.052C4.99347 16.1159 5.85444 16.1792 6.71542 16.2424C6.78125 16.2526 6.88998 16.3362 6.85004 16.1661C4.79228 14.9399 2.73157 13.7173 0.677522 12.4852C0.0147816 12.0877 -0.175312 11.4138 0.169372 10.7946C0.517015 10.1702 1.29218 9.89689 1.9564 10.2065C2.77004 10.5852 3.56592 11.001 4.3692 11.4008C5.55414 11.9903 6.73982 12.5805 7.96693 13.191C7.93365 13.0297 7.83527 12.9759 7.76426 12.9068C5.91584 11.1166 4.06519 9.32921 2.21677 7.53895C1.57178 6.91458 1.50891 6.24005 2.03407 5.67818C2.56959 5.10469 3.37139 5.07198 4.02599 5.61131C6.06969 7.29763 8.10895 8.98831 10.1512 10.6768C10.2828 10.7858 10.4211 10.8869 10.5565 10.9923C10.7044 11.0671 10.6985 10.9923 10.6608 10.8883C9.55647 9.19329 8.45289 7.49752 7.34783 5.80248C7.06158 5.36345 6.77015 4.92734 6.48612 4.48613C6.06229 3.8276 6.1762 3.13272 6.76941 2.71913C7.37964 2.29319 8.18217 2.39059 8.65704 2.98952C9.52985 4.08999 10.3812 5.20791 11.24 6.31855C12.2555 7.63199 13.2711 8.94543 14.3377 10.325C14.4227 9.66938 14.4997 9.08062 14.5751 8.49114C14.6276 8.08192 14.669 7.67124 14.7304 7.26347C14.8547 6.43703 15.5463 5.74578 16.3814 5.60041C16.9901 5.49429 17.4805 5.8599 17.5537 6.46756C17.6188 7.00907 17.6854 7.55131 17.7616 8.09137C17.8548 8.75717 18.0552 9.39099 18.3674 9.99066C18.9591 11.1267 19.3282 12.3246 19.411 13.6024C19.4828 13.6918 19.5013 13.7972 19.5035 13.907C19.5146 14.4885 19.664 15.0452 19.8208 15.6006C19.8119 16.2947 19.542 16.9307 19.3201 17.5689C18.6255 19.5612 17.607 21.3878 16.2948 23.0538C16.1676 23.2159 16.0574 23.3962 15.8621 23.495C15.7053 23.5328 15.5737 23.4601 15.4487 23.3896C14.996 23.1367 14.4804 22.9957 14.0781 22.6533V22.6548Z" fill="#FCBD00"/>
<path d="M15.8326 23.4616C17.7661 21.1582 19.1093 18.5676 19.7691 15.6449C19.7447 15.046 19.8638 14.4703 20.0702 13.9099C21.9874 14.8323 23.9031 15.7561 25.8225 16.6727C25.9927 16.7541 26.0097 16.8697 25.9971 17.0252C25.8055 19.3904 25.1783 21.6255 23.9438 23.6804C23.1205 25.0505 22.0843 26.2469 20.9001 27.3256C20.7322 27.4782 20.5894 27.5604 20.352 27.4448C18.5035 26.5493 16.6492 25.6647 14.7978 24.775C14.766 24.7598 14.7423 24.7285 14.7142 24.7053C14.7165 24.6566 14.7142 24.6013 14.7475 24.5672C15.1026 24.1921 15.3814 23.7444 15.8333 23.4609L15.8326 23.4616Z" fill="#6DAAFA"/>
<path d="M6.94478 24.6158C3.95062 24.4944 1.4535 22.5399 0.827006 19.825C0.805556 19.7313 0.782626 19.6332 0.788544 19.5394C0.79742 19.4049 0.883961 19.317 1.02228 19.2959C1.16208 19.2748 1.26859 19.3373 1.31445 19.466C1.35957 19.591 1.37732 19.7247 1.41652 19.8519C2.13326 22.1946 3.78049 23.4986 6.17849 23.9551C6.44403 24.006 6.71771 24.014 6.98621 24.0532C7.18517 24.0823 7.46033 24.0583 7.44998 24.3527C7.43814 24.6747 7.1652 24.6209 6.94478 24.6158Z" fill="#1A1A1A"/>
<path d="M12.8488 0.499998C15.3089 0.507267 17.4073 1.88249 18.1618 3.9773C18.2069 4.10305 18.2506 4.22952 18.2831 4.35818C18.3253 4.52754 18.2949 4.68527 18.1078 4.74632C17.9162 4.80811 17.809 4.69326 17.7469 4.52754C17.7343 4.49338 17.7195 4.45994 17.7084 4.42505C17.0863 2.47561 15.658 1.47908 13.6794 1.13091C13.3126 1.06622 12.9435 1.05459 12.5729 1.0684C12.365 1.0764 12.1772 1.03061 12.1698 0.800919C12.1624 0.574138 12.3466 0.504359 12.5529 0.500725C12.6513 0.498544 12.7504 0.500725 12.8495 0.500725L12.8488 0.499998Z" fill="#1A1A1A"/>
<path d="M2.69093 20.1064C2.68501 19.8978 2.73087 19.7742 2.88916 19.7394C3.06002 19.7023 3.18206 19.7851 3.2294 19.9443C3.65767 21.3704 4.72575 22.0013 6.13407 22.2158C6.31085 22.2427 6.44177 22.335 6.4218 22.5283C6.40183 22.7188 6.26351 22.8045 6.08156 22.7776C4.60074 22.5618 3.42689 21.9156 2.81519 20.4975C2.75306 20.3543 2.71977 20.1987 2.69093 20.1057V20.1064Z" fill="#1A1A1A"/>
<path d="M13.217 2.0112C14.6638 2.04245 15.8917 2.88997 16.3103 4.14235C16.3407 4.23394 16.3695 4.32916 16.3762 4.42365C16.3865 4.55739 16.3236 4.66206 16.1861 4.70058C16.0492 4.73911 15.9449 4.6766 15.8695 4.56829C15.8421 4.52977 15.8295 4.48034 15.814 4.43455C15.3761 3.13856 14.3805 2.62612 13.0743 2.55053C13.0003 2.54617 12.9256 2.55343 12.8524 2.54762C12.7 2.53526 12.5891 2.46258 12.5824 2.30339C12.575 2.13185 12.6763 2.03009 12.8472 2.0141C12.9693 2.00247 13.0935 2.01192 13.217 2.01192V2.0112Z" fill="#1A1A1A"/>
<path d="M15.8325 23.4616C15.4597 23.8766 15.0862 24.2909 14.7134 24.706C14.1108 24.4574 13.8628 24.0133 13.9693 23.3736C14.0093 23.1345 14.0418 22.8939 14.078 22.6541C14.6631 22.923 15.2475 23.1927 15.8325 23.4616Z" fill="#5678CC"/>
<path d="M20.0693 13.9106C20.0449 14.5016 19.8985 15.0721 19.7683 15.6456C19.4709 14.9951 19.3762 14.3097 19.4103 13.6031C19.63 13.7056 19.8496 13.8081 20.0686 13.9106H20.0693Z" fill="#5779CC"/>
<path d="M6.84935 16.166C6.90926 16.1776 6.98988 16.2256 6.95512 16.2656C6.88633 16.3441 6.79017 16.3099 6.71399 16.2423C6.76059 16.2191 6.82938 16.2351 6.84861 16.166H6.84935Z" fill="#FDCE44"/>
</g>
<defs>
<clipPath id="clip0_4802_20470">
<rect width="26" height="27" fill="white" transform="translate(0 0.5)"/>
</clipPath>
</defs>
</svg>
